<svg width="77" height="37" viewBox="0 0 77 37" fill="none" xmlns="http://www.w3.org/2000/svg">
<rect width="77" height="37" rx="8" fill="#396CEF"/>
<path d="M18.1836 15.6172C18.1836 16.2689 18.2747 16.9001 18.457 17.5107C18.6393 18.1214 18.9196 18.6751 19.2979 19.1719C19.6807 19.6686 20.1523 20.0651 20.7129 20.3613L19.8516 21.4824C19.291 21.1908 18.8125 20.7897 18.416 20.2793C18.0241 19.7689 17.7119 19.1764 17.4795 18.502C17.2562 19.2266 16.944 19.8714 16.543 20.4365C16.1465 20.9971 15.668 21.4368 15.1074 21.7559L14.2324 20.6348C14.7884 20.3112 15.2533 19.8828 15.627 19.3496C16.0052 18.8164 16.2855 18.2285 16.4678 17.5859C16.6546 16.9434 16.748 16.2871 16.748 15.6172V15.2754H14.5879V14.0312H16.748V12.2949H18.1836V14.0312H20.3164V15.2754H18.1836V15.6172ZM25.1289 24.2168H23.6797V17.9551H22.4082V23.6152H20.9727V12.0762H22.4082V16.6973H23.6797V11.8574H25.1289V24.2168ZM33.168 13.9492H28.7383V15.125H32.8125V16.3145H28.7383V17.5039H29.5039C30.502 17.5039 31.3428 17.4834 32.0264 17.4424C32.7145 17.4014 33.4004 17.3216 34.084 17.2031L34.2344 18.4062C33.4551 18.5339 32.6712 18.6204 31.8828 18.666C31.0944 18.7116 30.1146 18.7344 28.9434 18.7344H28.2461H27.1934V12.7461H33.168V13.9492ZM36.8047 19.4043H35.2734V11.8711H36.8047V19.4043ZM32.6348 19.582C33.5007 19.582 34.2503 19.6732 34.8838 19.8555C35.5173 20.0378 36.0049 20.3021 36.3467 20.6484C36.6885 20.9948 36.8594 21.4095 36.8594 21.8926C36.8594 22.3757 36.6885 22.7904 36.3467 23.1367C36.0049 23.4831 35.5173 23.7474 34.8838 23.9297C34.2503 24.112 33.5007 24.2031 32.6348 24.2031C31.7598 24.2031 31.0033 24.112 30.3652 23.9297C29.7318 23.7474 29.2464 23.4831 28.9092 23.1367C28.5719 22.7904 28.4056 22.3757 28.4102 21.8926C28.4056 21.4095 28.5719 20.9948 28.9092 20.6484C29.2464 20.3021 29.7318 20.0378 30.3652 19.8555C31.0033 19.6732 31.7598 19.582 32.6348 19.582ZM32.6348 20.7578C31.7598 20.7578 31.0876 20.8558 30.6182 21.0518C30.1488 21.2477 29.9186 21.528 29.9277 21.8926C29.9232 22.2617 30.1533 22.5443 30.6182 22.7402C31.083 22.9316 31.7552 23.0273 32.6348 23.0273C33.4961 23.0273 34.1615 22.9294 34.6309 22.7334C35.1048 22.5374 35.3418 22.2572 35.3418 21.8926C35.3418 21.5326 35.1048 21.2546 34.6309 21.0586C34.1569 20.8581 33.4915 20.7578 32.6348 20.7578ZM48.2891 16.7793H50.1895V18.0371H48.2891V24.2168H46.7852V11.8574H48.2891V16.7793ZM45.8281 14.9746H38.541V13.7578H41.4668V12.0352H42.9844V13.7578H45.8281V14.9746ZM42.2324 15.7812C42.8203 15.7812 43.349 15.9066 43.8184 16.1572C44.2923 16.4033 44.6637 16.7474 44.9326 17.1895C45.2015 17.6315 45.3359 18.1328 45.3359 18.6934C45.3359 19.2539 45.2015 19.7552 44.9326 20.1973C44.6637 20.6348 44.2923 20.9766 43.8184 21.2227C43.349 21.4688 42.8203 21.5918 42.2324 21.5918C41.6354 21.5918 41.0999 21.4688 40.626 21.2227C40.152 20.9766 39.7806 20.6348 39.5117 20.1973C39.2428 19.7552 39.1107 19.2539 39.1152 18.6934C39.1107 18.1328 39.2428 17.6315 39.5117 17.1895C39.7806 16.7474 40.152 16.4033 40.626 16.1572C41.0999 15.9066 41.6354 15.7812 42.2324 15.7812ZM42.2324 17.0254C41.9089 17.0254 41.6195 17.0938 41.3643 17.2305C41.1136 17.3672 40.9176 17.5632 40.7764 17.8184C40.6351 18.069 40.5645 18.3607 40.5645 18.6934C40.5645 19.026 40.6351 19.3177 40.7764 19.5684C40.9176 19.8145 41.1136 20.0059 41.3643 20.1426C41.6195 20.2747 41.9089 20.3385 42.2324 20.334C42.5469 20.3385 42.8271 20.2747 43.0732 20.1426C43.3239 20.0059 43.5199 19.8145 43.6611 19.5684C43.807 19.3177 43.8822 19.026 43.8867 18.6934C43.8822 18.3607 43.807 18.069 43.6611 17.8184C43.5199 17.5677 43.3239 17.374 43.0732 17.2373C42.8271 17.096 42.5469 17.0254 42.2324 17.0254ZM61.0312 24.2168H59.5V11.8574H61.0312V24.2168ZM57.3398 13.1699C57.3398 15.1341 56.8955 16.859 56.0068 18.3447C55.1182 19.8258 53.6439 21.054 51.584 22.0293L50.791 20.8125C52.3815 20.056 53.5778 19.1514 54.3799 18.0986C55.1865 17.0413 55.6582 15.7995 55.7949 14.373H51.4199V13.1699H57.3398Z" fill="white"/>
</svg>
