<svg width="20" height="20" viewBox="0 0 20 20" fill="none" xmlns="http://www.w3.org/2000/svg">
<path d="M10.0833 15.4583L9.99996 15.5417L9.90829 15.4583C5.94996 11.8667 3.33329 9.49167 3.33329 7.08333C3.33329 5.41667 4.58329 4.16667 6.24996 4.16667C7.53329 4.16667 8.78329 5 9.22496 6.13333H10.775C11.2166 5 12.4666 4.16667 13.75 4.16667C15.4166 4.16667 16.6666 5.41667 16.6666 7.08333C16.6666 9.49167 14.05 11.8667 10.0833 15.4583ZM13.75 2.5C12.3 2.5 10.9083 3.175 9.99996 4.23333C9.09163 3.175 7.69996 2.5 6.24996 2.5C3.68329 2.5 1.66663 4.50833 1.66663 7.08333C1.66663 10.225 4.49996 12.8 8.79163 16.6917L9.99996 17.7917L11.2083 16.6917C15.5 12.8 18.3333 10.225 18.3333 7.08333C18.3333 4.50833 16.3166 2.5 13.75 2.5Z" fill="black"/>
<path d="M10.0833 15.4583L9.99996 15.5417L9.90829 15.4583C5.94996 11.8667 3.33329 9.49167 3.33329 7.08333C3.33329 5.41667 4.58329 4.16667 6.24996 4.16667C7.53329 4.16667 8.78329 5 9.22496 6.13333H10.775C11.2166 5 12.4666 4.16667 13.75 4.16667C15.4166 4.16667 16.6666 5.41667 16.6666 7.08333C16.6666 9.49167 14.05 11.8667 10.0833 15.4583ZM13.75 2.5C12.3 2.5 10.9083 3.175 9.99996 4.23333C9.09163 3.175 7.69996 2.5 6.24996 2.5C3.68329 2.5 1.66663 4.50833 1.66663 7.08333C1.66663 10.225 4.49996 12.8 8.79163 16.6917L9.99996 17.7917L11.2083 16.6917C15.5 12.8 18.3333 10.225 18.3333 7.08333C18.3333 4.50833 16.3166 2.5 13.75 2.5Z" fill="black" fill-opacity="0.2"/>
<path d="M10.0833 15.4583L9.99996 15.5417L9.90829 15.4583C5.94996 11.8667 3.33329 9.49167 3.33329 7.08333C3.33329 5.41667 4.58329 4.16667 6.24996 4.16667C7.53329 4.16667 8.78329 5 9.22496 6.13333H10.775C11.2166 5 12.4666 4.16667 13.75 4.16667C15.4166 4.16667 16.6666 5.41667 16.6666 7.08333C16.6666 9.49167 14.05 11.8667 10.0833 15.4583ZM13.75 2.5C12.3 2.5 10.9083 3.175 9.99996 4.23333C9.09163 3.175 7.69996 2.5 6.24996 2.5C3.68329 2.5 1.66663 4.50833 1.66663 7.08333C1.66663 10.225 4.49996 12.8 8.79163 16.6917L9.99996 17.7917L11.2083 16.6917C15.5 12.8 18.3333 10.225 18.3333 7.08333C18.3333 4.50833 16.3166 2.5 13.75 2.5Z" fill="black" fill-opacity="0.2"/>
<path d="M10.0833 15.4583L9.99996 15.5417L9.90829 15.4583C5.94996 11.8667 3.33329 9.49167 3.33329 7.08333C3.33329 5.41667 4.58329 4.16667 6.24996 4.16667C7.53329 4.16667 8.78329 5 9.22496 6.13333H10.775C11.2166 5 12.4666 4.16667 13.75 4.16667C15.4166 4.16667 16.6666 5.41667 16.6666 7.08333C16.6666 9.49167 14.05 11.8667 10.0833 15.4583ZM13.75 2.5C12.3 2.5 10.9083 3.175 9.99996 4.23333C9.09163 3.175 7.69996 2.5 6.24996 2.5C3.68329 2.5 1.66663 4.50833 1.66663 7.08333C1.66663 10.225 4.49996 12.8 8.79163 16.6917L9.99996 17.7917L11.2083 16.6917C15.5 12.8 18.3333 10.225 18.3333 7.08333C18.3333 4.50833 16.3166 2.5 13.75 2.5Z" fill="black" fill-opacity="0.2"/>
<path d="M10.0833 15.4583L9.99996 15.5417L9.90829 15.4583C5.94996 11.8667 3.33329 9.49167 3.33329 7.08333C3.33329 5.41667 4.58329 4.16667 6.24996 4.16667C7.53329 4.16667 8.78329 5 9.22496 6.13333H10.775C11.2166 5 12.4666 4.16667 13.75 4.16667C15.4166 4.16667 16.6666 5.41667 16.6666 7.08333C16.6666 9.49167 14.05 11.8667 10.0833 15.4583ZM13.75 2.5C12.3 2.5 10.9083 3.175 9.99996 4.23333C9.09163 3.175 7.69996 2.5 6.24996 2.5C3.68329 2.5 1.66663 4.50833 1.66663 7.08333C1.66663 10.225 4.49996 12.8 8.79163 16.6917L9.99996 17.7917L11.2083 16.6917C15.5 12.8 18.3333 10.225 18.3333 7.08333C18.3333 4.50833 16.3166 2.5 13.75 2.5Z" fill="black" fill-opacity="0.2"/>
</svg>