<svg width="36" height="20" viewBox="0 0 36 20" fill="none" xmlns="http://www.w3.org/2000/svg">
<rect width="36" height="20" rx="4" fill="#719CF7"/>
<path d="M12.6921 5.64068V14.9129H11.5946V5.64068H12.6921ZM10.8151 5.80479V14.4616H9.73812V11.5384H8.52781C8.18421 12.4512 7.5688 12.9692 6.78415 12.9641C5.57384 12.9743 4.78407 11.6922 4.78407 9.6511C4.78407 7.60999 5.57384 6.3484 6.78415 6.3484C7.5688 6.3484 8.17908 6.86124 8.52781 7.76384H9.73812V5.80479H10.8151ZM6.78415 7.42537C6.179 7.41511 5.82001 8.20489 5.83026 9.6511C5.82001 11.0973 6.179 11.8871 6.78415 11.8768C7.39956 11.8871 7.77906 11.0973 7.77906 9.6511C7.77906 8.20489 7.39956 7.41511 6.78415 7.42537ZM8.75346 8.68696C8.79962 8.98441 8.82526 9.3075 8.82526 9.6511C8.82526 9.98958 8.79962 10.3075 8.76372 10.605H9.73812V8.68696H8.75346ZM22.3438 6.93304V7.85616H21.0822V8.92287H22.3438V9.87675H21.0822V11.1178H19.9437V5.64068H21.0822V6.93304H22.3438ZM21.0822 11.5178V14.9129H19.9437V12.441H14.9076V11.5178H21.0822ZM16.3743 6.17403C17.8 6.16378 18.8667 7.09715 18.877 8.39977C18.8667 9.7229 17.8 10.646 16.3743 10.646C14.9383 10.646 13.8614 9.7229 13.8716 8.39977C13.8614 7.09715 14.9383 6.16378 16.3743 6.17403ZM16.3743 7.13818C15.5743 7.14843 14.9794 7.6305 14.9896 8.39977C14.9794 9.18954 15.5743 9.68187 16.3743 9.67162C17.1641 9.68187 17.759 9.18954 17.759 8.39977C17.759 7.6305 17.1641 7.14843 16.3743 7.13818ZM31.298 9.89727V10.8204H27.626V11.5896C29.2876 11.7025 30.262 12.2769 30.2723 13.241C30.262 14.3077 29.062 14.9026 27.0619 14.9026C25.0413 14.9026 23.831 14.3077 23.831 13.241C23.831 12.2769 24.8157 11.6973 26.4978 11.5896V10.8204H22.8464V9.89727H31.298ZM27.0619 12.4512C25.708 12.4615 24.9798 12.7282 24.99 13.241C24.9798 13.7538 25.708 14.0308 27.0619 14.0308C28.385 14.0308 29.1235 13.7538 29.1338 13.241C29.1235 12.7282 28.385 12.4615 27.0619 12.4512ZM30.539 6.05095V6.96381H27.8722C28.0517 7.72794 29.1594 8.41515 30.898 8.57413L30.498 9.47674C28.8158 9.3075 27.5645 8.63567 27.0619 7.69205C26.5593 8.63055 25.3285 9.3075 23.6464 9.47674L23.2566 8.57413C24.9593 8.41515 26.067 7.71769 26.2619 6.96381H23.6156V6.05095H30.539Z" fill="white"/>
</svg>
