<svg width="47" height="20" viewBox="0 0 47 20" fill="none" xmlns="http://www.w3.org/2000/svg">
<rect width="47" height="20" rx="4" fill="#7E8190"/>
<path d="M12.1713 5.64068V14.9129H11.0328V10.1947H9.07376V9.26134H11.0328V5.64068H12.1713ZM9.11479 6.62533C9.10453 9.36391 8.13013 11.6614 4.94025 13.241L4.34536 12.3486C6.74546 11.1742 7.77627 9.60495 7.96602 7.52794H4.77614V6.62533H9.11479ZM17.2587 6.58431V10.0409H14.8586V11.8461C15.8022 11.8358 16.6997 11.7999 17.7305 11.6307L17.8126 12.5538C16.5612 12.7589 15.5458 12.8 14.3971 12.8H13.7611V9.11775H16.1612V7.50742H13.7509V6.58431H17.2587ZM21.464 5.64068V14.9129H20.3768V10.1229H19.3306V14.441H18.2844V5.81504H19.3306V9.1998H20.3768V5.64068H21.464ZM27.854 6.0407C29.2079 6.0407 30.1721 6.78944 30.1823 7.90744C30.1721 8.82543 29.4797 9.51776 28.4489 9.71264V10.4614C29.2182 10.4204 29.9926 10.3486 30.7157 10.246L30.808 11.0768C28.8797 11.4255 26.7258 11.4563 25.1565 11.4563L25.0334 10.5434C25.7001 10.5486 26.4796 10.5434 27.3002 10.5127V9.71264C26.2386 9.53828 25.5257 8.84081 25.536 7.90744C25.5257 6.78944 26.4899 6.0407 27.854 6.0407ZM27.854 6.91253C27.1155 6.91253 26.5924 7.28177 26.6027 7.90744C26.5924 8.51259 27.1155 8.8921 27.854 8.90235C28.5925 8.8921 29.0951 8.51259 29.1054 7.90744C29.0951 7.28177 28.5925 6.91253 27.854 6.91253ZM32.3978 5.65094V8.64593H33.6491V9.58956H32.3978V12.7282H31.2593V5.65094H32.3978ZM32.726 13.7949V14.718H26.3052V12.1025H27.4438V13.7949H32.726ZM42.6034 12.8923V13.8359H34.1312V12.8923H36.3775V11.364H35.1364V8.33823H40.4699V7.19972H35.1159V6.2766H41.5982V9.25108H36.2749V10.4409H41.8136V11.364H40.4597V12.8923H42.6034ZM37.4852 12.8923H39.3417V11.364H37.4852V12.8923Z" fill="white"/>
</svg>
