<svg width="36" height="20" viewBox="0 0 36 20" fill="none" xmlns="http://www.w3.org/2000/svg">
<rect width="36" height="20" rx="4" fill="#719CF7"/>
<path d="M12.6921 14.9129H11.5946V5.64068H12.6921V14.9129ZM10.8151 14.4616H9.73812V11.5384H8.52268C8.35174 11.9965 8.11583 12.3504 7.81496 12.5999C7.51751 12.8461 7.17391 12.9675 6.78415 12.9641C6.38413 12.9675 6.03198 12.8358 5.7277 12.5692C5.42683 12.2991 5.19434 11.9144 5.03023 11.4153C4.86612 10.9127 4.78407 10.3246 4.78407 9.6511C4.78407 8.97757 4.86612 8.39293 5.03023 7.89718C5.19434 7.39802 5.42683 7.01509 5.7277 6.74842C6.03198 6.48174 6.38413 6.3484 6.78415 6.3484C7.17391 6.3484 7.51751 6.47148 7.81496 6.71765C8.11241 6.96039 8.34832 7.30912 8.52268 7.76384H9.73812V5.80479H10.8151V14.4616ZM6.78415 7.42537C6.47986 7.41853 6.24396 7.60828 6.07643 7.99462C5.9089 8.38096 5.82685 8.93312 5.83026 9.6511C5.82685 10.3691 5.9089 10.9212 6.07643 11.3076C6.24396 11.6939 6.47986 11.8837 6.78415 11.8768C6.98929 11.8803 7.16536 11.7965 7.31238 11.6255C7.46281 11.4546 7.57735 11.2016 7.65598 10.8665C7.73804 10.5315 7.77906 10.1263 7.77906 9.6511C7.77906 9.17587 7.73804 8.77072 7.65598 8.43567C7.57735 8.10061 7.46281 7.84761 7.31238 7.67666C7.16536 7.50571 6.98929 7.42195 6.78415 7.42537ZM8.75346 8.68696C8.80133 8.99466 8.82526 9.31604 8.82526 9.6511C8.82526 9.96564 8.80304 10.2836 8.75859 10.605H9.73812V8.68696H8.75346ZM22.3438 7.85616H21.0822V8.92287H22.3438V9.87675H21.0822V11.1178H19.9437V5.64068H21.0822V6.93304H22.3438V7.85616ZM21.0822 14.9129H19.9437V12.441H14.9076V11.5178H21.0822V14.9129ZM16.3743 6.17403C16.8427 6.17062 17.2666 6.26464 17.6461 6.4561C18.0256 6.64414 18.3248 6.90911 18.5436 7.251C18.7624 7.58948 18.8735 7.9724 18.877 8.39977C18.8735 8.83397 18.7624 9.22202 18.5436 9.56392C18.3282 9.90239 18.0308 10.1674 17.6513 10.3588C17.2718 10.5503 16.8461 10.646 16.3743 10.646C15.8991 10.646 15.47 10.5503 15.0871 10.3588C14.7076 10.1674 14.4084 9.90239 14.1896 9.56392C13.9742 9.22202 13.8682 8.83397 13.8716 8.39977C13.8682 7.9724 13.9742 7.58948 14.1896 7.251C14.4084 6.90911 14.7093 6.64414 15.0922 6.4561C15.4751 6.26464 15.9025 6.17062 16.3743 6.17403ZM16.3743 7.13818C16.1076 7.1416 15.8683 7.1963 15.6563 7.30229C15.4443 7.40485 15.2785 7.55187 15.1589 7.74333C15.0426 7.93137 14.9862 8.15018 14.9896 8.39977C14.9862 8.65619 15.0426 8.88184 15.1589 9.07672C15.2785 9.2716 15.4443 9.42032 15.6563 9.52289C15.8683 9.62546 16.1076 9.67503 16.3743 9.67162C16.6376 9.67503 16.8735 9.62546 17.082 9.52289C17.294 9.42032 17.4598 9.2716 17.5795 9.07672C17.6991 8.88184 17.759 8.65619 17.759 8.39977C17.759 8.15018 17.6991 7.93137 17.5795 7.74333C17.4598 7.55187 17.294 7.40485 17.082 7.30229C16.8735 7.1963 16.6376 7.1416 16.3743 7.13818ZM31.298 10.8204H27.626V11.5948C28.4637 11.6495 29.1133 11.8187 29.5748 12.1025C30.0364 12.3828 30.2689 12.7623 30.2723 13.241C30.2689 13.5931 30.139 13.894 29.8825 14.1436C29.6261 14.3932 29.2586 14.5812 28.7799 14.7077C28.3013 14.8376 27.7286 14.9026 27.0619 14.9026C26.3884 14.9026 25.8089 14.8376 25.3234 14.7077C24.8413 14.5812 24.4721 14.3932 24.2156 14.1436C23.9592 13.894 23.831 13.5931 23.831 13.241C23.831 12.7623 24.0635 12.3811 24.5285 12.0974C24.9935 11.8136 25.6499 11.6461 26.4978 11.5948V10.8204H22.8464V9.89727H31.298V10.8204ZM27.0619 12.4512C26.3815 12.4581 25.8653 12.5281 25.5131 12.6615C25.161 12.7914 24.9866 12.9846 24.99 13.241C24.9866 13.4974 25.161 13.694 25.5131 13.8308C25.8687 13.9641 26.385 14.0308 27.0619 14.0308C27.7252 14.0308 28.2346 13.9641 28.5902 13.8308C28.9492 13.694 29.1304 13.4974 29.1338 13.241C29.1304 12.988 28.9509 12.7948 28.5953 12.6615C28.2397 12.5281 27.7286 12.4581 27.0619 12.4512ZM30.539 6.96381H27.8671C27.9286 7.22023 28.0893 7.46127 28.3491 7.68692C28.6124 7.91257 28.9611 8.10403 29.3953 8.2613C29.833 8.41857 30.3338 8.52285 30.898 8.57413L30.498 9.47674C29.6637 9.39126 28.9458 9.19125 28.344 8.87671C27.7423 8.56217 27.3149 8.16899 27.0619 7.69717C26.8089 8.16899 26.3833 8.56388 25.7849 8.88184C25.19 9.19638 24.4772 9.39468 23.6464 9.47674L23.2566 8.57413C23.8071 8.52285 24.2977 8.41857 24.7285 8.2613C25.1593 8.10403 25.5063 7.91257 25.7696 7.68692C26.0328 7.45785 26.1969 7.21681 26.2619 6.96381H23.6156V6.05095H30.539V6.96381Z" fill="white"/>
</svg>
