<svg width="10" height="10" viewBox="0 0 10 10" fill="none" xmlns="http://www.w3.org/2000/svg">
<path d="M4.31817 1.25C3.71134 1.25 3.11814 1.42994 2.61358 1.76708C2.10903 2.10421 1.71577 2.58339 1.48355 3.14403C1.25133 3.70466 1.19057 4.32157 1.30896 4.91673C1.42734 5.5119 1.71956 6.05859 2.14865 6.48768C2.57774 6.91677 3.12443 7.20899 3.7196 7.32737C4.31476 7.44576 4.93167 7.385 5.4923 7.15278C6.05293 6.92056 6.53212 6.5273 6.86925 6.02274C7.20638 5.51819 7.38633 4.92499 7.38633 4.31816C7.38628 3.50445 7.06301 2.72408 6.48763 2.1487C5.91225 1.57332 5.13188 1.25005 4.31817 1.25Z" stroke="black" stroke-width="1.25" stroke-miterlimit="10"/>
<path d="M6.60724 6.60718L8.75001 8.74995" stroke="black" stroke-width="1.25" stroke-miterlimit="10" stroke-linecap="round"/>
</svg>
