<svg width="18" height="18" viewBox="0 0 18 18" fill="none" xmlns="http://www.w3.org/2000/svg">
<g id="Icon/send">
<path id="Vector" d="M2.43641 1.68752C1.81733 1.3918 1.13719 1.95752 1.31398 2.6203L2.60998 7.46295C2.64246 7.58466 2.70998 7.69414 2.80415 7.7778C2.89833 7.86146 3.015 7.91561 3.13969 7.93352L9.49369 8.84123C9.67755 8.86695 9.67755 9.13309 9.49369 9.15945L3.14034 10.0665C3.01565 10.0844 2.89897 10.1386 2.8048 10.2222C2.71062 10.3059 2.6431 10.4154 2.61062 10.5371L1.31398 15.3823C1.13719 16.0444 1.81733 16.6102 2.43641 16.3151L16.2566 9.72645C16.8666 9.43588 16.8666 8.56673 16.2566 8.27552L2.43641 1.68752Z" fill="#919191"/>
</g>
</svg>
