<svg width="14" height="15" viewBox="0 0 14 15" fill="none" xmlns="http://www.w3.org/2000/svg">
<g id="Icon/calender">
<path id="Vector" d="M1.16666 11.5834C1.16666 12.5751 1.92499 13.3334 2.91666 13.3334H11.0833C12.075 13.3334 12.8333 12.5751 12.8333 11.5834V6.91675H1.16666V11.5834ZM11.0833 2.83341H9.91666V2.25008C9.91666 1.90008 9.68332 1.66675 9.33332 1.66675C8.98332 1.66675 8.74999 1.90008 8.74999 2.25008V2.83341H5.24999V2.25008C5.24999 1.90008 5.01666 1.66675 4.66666 1.66675C4.31666 1.66675 4.08332 1.90008 4.08332 2.25008V2.83341H2.91666C1.92499 2.83341 1.16666 3.59175 1.16666 4.58341V5.75008H12.8333V4.58341C12.8333 3.59175 12.075 2.83341 11.0833 2.83341Z" fill="#9DA1B4"/>
</g>
</svg>
