<svg width="16" height="17" viewBox="0 0 16 17" fill="none" xmlns="http://www.w3.org/2000/svg">
<g id="Icon/photo">
<g id="Vector">
<path d="M14.5 8.125H11.8237C12.1938 7.45906 12.3835 6.70804 12.3742 5.94626C12.3648 5.18447 12.1567 4.43834 11.7704 3.78169C11.3841 3.12505 10.833 2.58065 10.1718 2.20238C9.51045 1.82412 8.76184 1.62509 8 1.625C7.90054 1.625 7.80516 1.66451 7.73484 1.73483C7.66451 1.80516 7.625 1.90054 7.625 2V4.67625C6.95906 4.30621 6.20804 4.11649 5.44626 4.12584C4.68447 4.1352 3.93834 4.34332 3.28169 4.72961C2.62505 5.11589 2.08065 5.66695 1.70238 6.32825C1.32412 6.98955 1.12509 7.73816 1.125 8.5C1.125 8.59946 1.16451 8.69484 1.23483 8.76517C1.30516 8.83549 1.40054 8.875 1.5 8.875H4.17625C3.80621 9.54094 3.61649 10.292 3.62584 11.0537C3.6352 11.8155 3.84332 12.5617 4.22961 13.2183C4.61589 13.875 5.16695 14.4193 5.82825 14.7976C6.48955 15.1759 7.23816 15.3749 8 15.375C8.09946 15.375 8.19484 15.3355 8.26517 15.2652C8.33549 15.1948 8.375 15.0995 8.375 15V12.3237C9.04094 12.6938 9.79196 12.8835 10.5537 12.8742C11.3155 12.8648 12.0617 12.6567 12.7183 12.2704C13.375 11.8841 13.9193 11.333 14.2976 10.6718C14.6759 10.0105 14.8749 9.26184 14.875 8.5C14.875 8.40054 14.8355 8.30516 14.7652 8.23484C14.6948 8.16451 14.5995 8.125 14.5 8.125ZM11.625 6C11.6282 6.76351 11.3873 7.50806 10.9375 8.125H8.375V2.39437C9.26626 2.48819 10.0913 2.90838 10.6913 3.57405C11.2913 4.23972 11.6239 5.10382 11.625 6ZM5.5 4.875C6.26351 4.87178 7.00806 5.11267 7.625 5.5625V8.125H1.89437C1.98819 7.23374 2.40838 6.40869 3.07405 5.80868C3.73972 5.20866 4.60382 4.87609 5.5 4.875ZM4.375 11C4.37178 10.2365 4.61267 9.49194 5.0625 8.875H7.625V14.6056C6.73374 14.5118 5.90869 14.0916 5.30868 13.426C4.70866 12.7603 4.37609 11.8962 4.375 11ZM10.5 12.125C9.73649 12.1282 8.99194 11.8873 8.375 11.4375V8.875H14.1056C14.0118 9.76626 13.5916 10.5913 12.926 11.1913C12.2603 11.7913 11.3962 12.1239 10.5 12.125Z" fill="black"/>
<path d="M14.5 8.125H11.8237C12.1938 7.45906 12.3835 6.70804 12.3742 5.94626C12.3648 5.18447 12.1567 4.43834 11.7704 3.78169C11.3841 3.12505 10.833 2.58065 10.1718 2.20238C9.51045 1.82412 8.76184 1.62509 8 1.625C7.90054 1.625 7.80516 1.66451 7.73484 1.73483C7.66451 1.80516 7.625 1.90054 7.625 2V4.67625C6.95906 4.30621 6.20804 4.11649 5.44626 4.12584C4.68447 4.1352 3.93834 4.34332 3.28169 4.72961C2.62505 5.11589 2.08065 5.66695 1.70238 6.32825C1.32412 6.98955 1.12509 7.73816 1.125 8.5C1.125 8.59946 1.16451 8.69484 1.23483 8.76517C1.30516 8.83549 1.40054 8.875 1.5 8.875H4.17625C3.80621 9.54094 3.61649 10.292 3.62584 11.0537C3.6352 11.8155 3.84332 12.5617 4.22961 13.2183C4.61589 13.875 5.16695 14.4193 5.82825 14.7976C6.48955 15.1759 7.23816 15.3749 8 15.375C8.09946 15.375 8.19484 15.3355 8.26517 15.2652C8.33549 15.1948 8.375 15.0995 8.375 15V12.3237C9.04094 12.6938 9.79196 12.8835 10.5537 12.8742C11.3155 12.8648 12.0617 12.6567 12.7183 12.2704C13.375 11.8841 13.9193 11.333 14.2976 10.6718C14.6759 10.0105 14.8749 9.26184 14.875 8.5C14.875 8.40054 14.8355 8.30516 14.7652 8.23484C14.6948 8.16451 14.5995 8.125 14.5 8.125ZM11.625 6C11.6282 6.76351 11.3873 7.50806 10.9375 8.125H8.375V2.39437C9.26626 2.48819 10.0913 2.90838 10.6913 3.57405C11.2913 4.23972 11.6239 5.10382 11.625 6ZM5.5 4.875C6.26351 4.87178 7.00806 5.11267 7.625 5.5625V8.125H1.89437C1.98819 7.23374 2.40838 6.40869 3.07405 5.80868C3.73972 5.20866 4.60382 4.87609 5.5 4.875ZM4.375 11C4.37178 10.2365 4.61267 9.49194 5.0625 8.875H7.625V14.6056C6.73374 14.5118 5.90869 14.0916 5.30868 13.426C4.70866 12.7603 4.37609 11.8962 4.375 11ZM10.5 12.125C9.73649 12.1282 8.99194 11.8873 8.375 11.4375V8.875H14.1056C14.0118 9.76626 13.5916 10.5913 12.926 11.1913C12.2603 11.7913 11.3962 12.1239 10.5 12.125Z" fill="black" fill-opacity="0.2"/>
<path d="M14.5 8.125H11.8237C12.1938 7.45906 12.3835 6.70804 12.3742 5.94626C12.3648 5.18447 12.1567 4.43834 11.7704 3.78169C11.3841 3.12505 10.833 2.58065 10.1718 2.20238C9.51045 1.82412 8.76184 1.62509 8 1.625C7.90054 1.625 7.80516 1.66451 7.73484 1.73483C7.66451 1.80516 7.625 1.90054 7.625 2V4.67625C6.95906 4.30621 6.20804 4.11649 5.44626 4.12584C4.68447 4.1352 3.93834 4.34332 3.28169 4.72961C2.62505 5.11589 2.08065 5.66695 1.70238 6.32825C1.32412 6.98955 1.12509 7.73816 1.125 8.5C1.125 8.59946 1.16451 8.69484 1.23483 8.76517C1.30516 8.83549 1.40054 8.875 1.5 8.875H4.17625C3.80621 9.54094 3.61649 10.292 3.62584 11.0537C3.6352 11.8155 3.84332 12.5617 4.22961 13.2183C4.61589 13.875 5.16695 14.4193 5.82825 14.7976C6.48955 15.1759 7.23816 15.3749 8 15.375C8.09946 15.375 8.19484 15.3355 8.26517 15.2652C8.33549 15.1948 8.375 15.0995 8.375 15V12.3237C9.04094 12.6938 9.79196 12.8835 10.5537 12.8742C11.3155 12.8648 12.0617 12.6567 12.7183 12.2704C13.375 11.8841 13.9193 11.333 14.2976 10.6718C14.6759 10.0105 14.8749 9.26184 14.875 8.5C14.875 8.40054 14.8355 8.30516 14.7652 8.23484C14.6948 8.16451 14.5995 8.125 14.5 8.125ZM11.625 6C11.6282 6.76351 11.3873 7.50806 10.9375 8.125H8.375V2.39437C9.26626 2.48819 10.0913 2.90838 10.6913 3.57405C11.2913 4.23972 11.6239 5.10382 11.625 6ZM5.5 4.875C6.26351 4.87178 7.00806 5.11267 7.625 5.5625V8.125H1.89437C1.98819 7.23374 2.40838 6.40869 3.07405 5.80868C3.73972 5.20866 4.60382 4.87609 5.5 4.875ZM4.375 11C4.37178 10.2365 4.61267 9.49194 5.0625 8.875H7.625V14.6056C6.73374 14.5118 5.90869 14.0916 5.30868 13.426C4.70866 12.7603 4.37609 11.8962 4.375 11ZM10.5 12.125C9.73649 12.1282 8.99194 11.8873 8.375 11.4375V8.875H14.1056C14.0118 9.76626 13.5916 10.5913 12.926 11.1913C12.2603 11.7913 11.3962 12.1239 10.5 12.125Z" fill="black" fill-opacity="0.2"/>
<path d="M14.5 8.125H11.8237C12.1938 7.45906 12.3835 6.70804 12.3742 5.94626C12.3648 5.18447 12.1567 4.43834 11.7704 3.78169C11.3841 3.12505 10.833 2.58065 10.1718 2.20238C9.51045 1.82412 8.76184 1.62509 8 1.625C7.90054 1.625 7.80516 1.66451 7.73484 1.73483C7.66451 1.80516 7.625 1.90054 7.625 2V4.67625C6.95906 4.30621 6.20804 4.11649 5.44626 4.12584C4.68447 4.1352 3.93834 4.34332 3.28169 4.72961C2.62505 5.11589 2.08065 5.66695 1.70238 6.32825C1.32412 6.98955 1.12509 7.73816 1.125 8.5C1.125 8.59946 1.16451 8.69484 1.23483 8.76517C1.30516 8.83549 1.40054 8.875 1.5 8.875H4.17625C3.80621 9.54094 3.61649 10.292 3.62584 11.0537C3.6352 11.8155 3.84332 12.5617 4.22961 13.2183C4.61589 13.875 5.16695 14.4193 5.82825 14.7976C6.48955 15.1759 7.23816 15.3749 8 15.375C8.09946 15.375 8.19484 15.3355 8.26517 15.2652C8.33549 15.1948 8.375 15.0995 8.375 15V12.3237C9.04094 12.6938 9.79196 12.8835 10.5537 12.8742C11.3155 12.8648 12.0617 12.6567 12.7183 12.2704C13.375 11.8841 13.9193 11.333 14.2976 10.6718C14.6759 10.0105 14.8749 9.26184 14.875 8.5C14.875 8.40054 14.8355 8.30516 14.7652 8.23484C14.6948 8.16451 14.5995 8.125 14.5 8.125ZM11.625 6C11.6282 6.76351 11.3873 7.50806 10.9375 8.125H8.375V2.39437C9.26626 2.48819 10.0913 2.90838 10.6913 3.57405C11.2913 4.23972 11.6239 5.10382 11.625 6ZM5.5 4.875C6.26351 4.87178 7.00806 5.11267 7.625 5.5625V8.125H1.89437C1.98819 7.23374 2.40838 6.40869 3.07405 5.80868C3.73972 5.20866 4.60382 4.87609 5.5 4.875ZM4.375 11C4.37178 10.2365 4.61267 9.49194 5.0625 8.875H7.625V14.6056C6.73374 14.5118 5.90869 14.0916 5.30868 13.426C4.70866 12.7603 4.37609 11.8962 4.375 11ZM10.5 12.125C9.73649 12.1282 8.99194 11.8873 8.375 11.4375V8.875H14.1056C14.0118 9.76626 13.5916 10.5913 12.926 11.1913C12.2603 11.7913 11.3962 12.1239 10.5 12.125Z" fill="black" fill-opacity="0.2"/>
<path d="M14.5 8.125H11.8237C12.1938 7.45906 12.3835 6.70804 12.3742 5.94626C12.3648 5.18447 12.1567 4.43834 11.7704 3.78169C11.3841 3.12505 10.833 2.58065 10.1718 2.20238C9.51045 1.82412 8.76184 1.62509 8 1.625C7.90054 1.625 7.80516 1.66451 7.73484 1.73483C7.66451 1.80516 7.625 1.90054 7.625 2V4.67625C6.95906 4.30621 6.20804 4.11649 5.44626 4.12584C4.68447 4.1352 3.93834 4.34332 3.28169 4.72961C2.62505 5.11589 2.08065 5.66695 1.70238 6.32825C1.32412 6.98955 1.12509 7.73816 1.125 8.5C1.125 8.59946 1.16451 8.69484 1.23483 8.76517C1.30516 8.83549 1.40054 8.875 1.5 8.875H4.17625C3.80621 9.54094 3.61649 10.292 3.62584 11.0537C3.6352 11.8155 3.84332 12.5617 4.22961 13.2183C4.61589 13.875 5.16695 14.4193 5.82825 14.7976C6.48955 15.1759 7.23816 15.3749 8 15.375C8.09946 15.375 8.19484 15.3355 8.26517 15.2652C8.33549 15.1948 8.375 15.0995 8.375 15V12.3237C9.04094 12.6938 9.79196 12.8835 10.5537 12.8742C11.3155 12.8648 12.0617 12.6567 12.7183 12.2704C13.375 11.8841 13.9193 11.333 14.2976 10.6718C14.6759 10.0105 14.8749 9.26184 14.875 8.5C14.875 8.40054 14.8355 8.30516 14.7652 8.23484C14.6948 8.16451 14.5995 8.125 14.5 8.125ZM11.625 6C11.6282 6.76351 11.3873 7.50806 10.9375 8.125H8.375V2.39437C9.26626 2.48819 10.0913 2.90838 10.6913 3.57405C11.2913 4.23972 11.6239 5.10382 11.625 6ZM5.5 4.875C6.26351 4.87178 7.00806 5.11267 7.625 5.5625V8.125H1.89437C1.98819 7.23374 2.40838 6.40869 3.07405 5.80868C3.73972 5.20866 4.60382 4.87609 5.5 4.875ZM4.375 11C4.37178 10.2365 4.61267 9.49194 5.0625 8.875H7.625V14.6056C6.73374 14.5118 5.90869 14.0916 5.30868 13.426C4.70866 12.7603 4.37609 11.8962 4.375 11ZM10.5 12.125C9.73649 12.1282 8.99194 11.8873 8.375 11.4375V8.875H14.1056C14.0118 9.76626 13.5916 10.5913 12.926 11.1913C12.2603 11.7913 11.3962 12.1239 10.5 12.125Z" fill="black" fill-opacity="0.2"/>
</g>
</g>
</svg>
