<svg width="14" height="15" viewBox="0 0 14 15" fill="none" xmlns="http://www.w3.org/2000/svg">
<g id="Icon/fullpeople">
<path id="Vector" d="M9.33332 10.4166V11.5833H1.16666V10.4166C1.16666 10.4166 1.16666 8.08328 5.24999 8.08328C9.33332 8.08328 9.33332 10.4166 9.33332 10.4166ZM7.29166 4.87495C7.29166 4.47115 7.17191 4.07641 6.94757 3.74066C6.72323 3.40491 6.40437 3.14322 6.0313 2.9887C5.65824 2.83417 5.24772 2.79373 4.85168 2.87251C4.45564 2.95129 4.09185 3.14574 3.80631 3.43127C3.52078 3.71681 3.32633 4.0806 3.24755 4.47664C3.16878 4.87268 3.20921 5.2832 3.36374 5.65626C3.51826 6.02933 3.77995 6.34819 4.1157 6.57253C4.45145 6.79687 4.84619 6.91662 5.24999 6.91662C5.79147 6.91662 6.31078 6.70151 6.69367 6.31863C7.07655 5.93574 7.29166 5.41643 7.29166 4.87495ZM9.29832 8.08328C9.65693 8.3608 9.95036 8.71353 10.158 9.11666C10.3656 9.51979 10.4823 9.96351 10.5 10.4166V11.5833H12.8333V10.4166C12.8333 10.4166 12.8333 8.29912 9.29832 8.08328ZM8.74999 2.83328C8.34847 2.83105 7.95579 2.95109 7.62416 3.17745C7.9785 3.67255 8.16902 4.26612 8.16902 4.87495C8.16902 5.48378 7.9785 6.07735 7.62416 6.57245C7.95579 6.79881 8.34847 6.91885 8.74999 6.91662C9.29147 6.91662 9.81078 6.70151 10.1937 6.31863C10.5766 5.93574 10.7917 5.41643 10.7917 4.87495C10.7917 4.33347 10.5766 3.81416 10.1937 3.43127C9.81078 3.04839 9.29147 2.83328 8.74999 2.83328Z" fill="#9DA1B4"/>
</g>
</svg>
