<svg width="21" height="20" viewBox="0 0 21 20" fill="none" xmlns="http://www.w3.org/2000/svg">
<g id="Group">
<g id="Vector">
<path d="M10.4999 19.2858C15.6283 19.2858 19.7857 15.1284 19.7857 10.0001C19.7857 4.87171 15.6283 0.714355 10.4999 0.714355C5.37159 0.714355 1.21423 4.87171 1.21423 10.0001C1.21423 15.1284 5.37159 19.2858 10.4999 19.2858Z" stroke="black" stroke-width="1.42857" stroke-linecap="round" stroke-linejoin="round"/>
<path d="M10.4999 19.2858C15.6283 19.2858 19.7857 15.1284 19.7857 10.0001C19.7857 4.87171 15.6283 0.714355 10.4999 0.714355C5.37159 0.714355 1.21423 4.87171 1.21423 10.0001C1.21423 15.1284 5.37159 19.2858 10.4999 19.2858Z" stroke="black" stroke-opacity="0.2" stroke-width="1.42857" stroke-linecap="round" stroke-linejoin="round"/>
<path d="M10.4999 19.2858C15.6283 19.2858 19.7857 15.1284 19.7857 10.0001C19.7857 4.87171 15.6283 0.714355 10.4999 0.714355C5.37159 0.714355 1.21423 4.87171 1.21423 10.0001C1.21423 15.1284 5.37159 19.2858 10.4999 19.2858Z" stroke="black" stroke-opacity="0.2" stroke-width="1.42857" stroke-linecap="round" stroke-linejoin="round"/>
<path d="M10.4999 19.2858C15.6283 19.2858 19.7857 15.1284 19.7857 10.0001C19.7857 4.87171 15.6283 0.714355 10.4999 0.714355C5.37159 0.714355 1.21423 4.87171 1.21423 10.0001C1.21423 15.1284 5.37159 19.2858 10.4999 19.2858Z" stroke="black" stroke-opacity="0.2" stroke-width="1.42857" stroke-linecap="round" stroke-linejoin="round"/>
<path d="M10.4999 19.2858C15.6283 19.2858 19.7857 15.1284 19.7857 10.0001C19.7857 4.87171 15.6283 0.714355 10.4999 0.714355C5.37159 0.714355 1.21423 4.87171 1.21423 10.0001C1.21423 15.1284 5.37159 19.2858 10.4999 19.2858Z" stroke="black" stroke-opacity="0.2" stroke-width="1.42857" stroke-linecap="round" stroke-linejoin="round"/>
</g>
<g id="Vector_2">
<path d="M10.5 6.42871V10.0001L14.1286 14.2287" stroke="black" stroke-width="1.42857" stroke-linecap="round" stroke-linejoin="round"/>
<path d="M10.5 6.42871V10.0001L14.1286 14.2287" stroke="black" stroke-opacity="0.2" stroke-width="1.42857" stroke-linecap="round" stroke-linejoin="round"/>
<path d="M10.5 6.42871V10.0001L14.1286 14.2287" stroke="black" stroke-opacity="0.2" stroke-width="1.42857" stroke-linecap="round" stroke-linejoin="round"/>
<path d="M10.5 6.42871V10.0001L14.1286 14.2287" stroke="black" stroke-opacity="0.2" stroke-width="1.42857" stroke-linecap="round" stroke-linejoin="round"/>
<path d="M10.5 6.42871V10.0001L14.1286 14.2287" stroke="black" stroke-opacity="0.2" stroke-width="1.42857" stroke-linecap="round" stroke-linejoin="round"/>
</g>
</g>
</svg>
