<svg width="21" height="20" viewBox="0 0 21 20" fill="none" xmlns="http://www.w3.org/2000/svg">
<g id="Icon/calender">
<g id="Vector">
<path d="M2.16663 15.8334C2.16663 17.2501 3.24996 18.3334 4.66663 18.3334H16.3333C17.75 18.3334 18.8333 17.2501 18.8333 15.8334V9.16675H2.16663V15.8334ZM16.3333 3.33341H14.6666V2.50008C14.6666 2.00008 14.3333 1.66675 13.8333 1.66675C13.3333 1.66675 13 2.00008 13 2.50008V3.33341H7.99996V2.50008C7.99996 2.00008 7.66663 1.66675 7.16663 1.66675C6.66663 1.66675 6.33329 2.00008 6.33329 2.50008V3.33341H4.66663C3.24996 3.33341 2.16663 4.41675 2.16663 5.83341V7.50008H18.8333V5.83341C18.8333 4.41675 17.75 3.33341 16.3333 3.33341Z" fill="black"/>
<path d="M2.16663 15.8334C2.16663 17.2501 3.24996 18.3334 4.66663 18.3334H16.3333C17.75 18.3334 18.8333 17.2501 18.8333 15.8334V9.16675H2.16663V15.8334ZM16.3333 3.33341H14.6666V2.50008C14.6666 2.00008 14.3333 1.66675 13.8333 1.66675C13.3333 1.66675 13 2.00008 13 2.50008V3.33341H7.99996V2.50008C7.99996 2.00008 7.66663 1.66675 7.16663 1.66675C6.66663 1.66675 6.33329 2.00008 6.33329 2.50008V3.33341H4.66663C3.24996 3.33341 2.16663 4.41675 2.16663 5.83341V7.50008H18.8333V5.83341C18.8333 4.41675 17.75 3.33341 16.3333 3.33341Z" fill="black" fill-opacity="0.2"/>
<path d="M2.16663 15.8334C2.16663 17.2501 3.24996 18.3334 4.66663 18.3334H16.3333C17.75 18.3334 18.8333 17.2501 18.8333 15.8334V9.16675H2.16663V15.8334ZM16.3333 3.33341H14.6666V2.50008C14.6666 2.00008 14.3333 1.66675 13.8333 1.66675C13.3333 1.66675 13 2.00008 13 2.50008V3.33341H7.99996V2.50008C7.99996 2.00008 7.66663 1.66675 7.16663 1.66675C6.66663 1.66675 6.33329 2.00008 6.33329 2.50008V3.33341H4.66663C3.24996 3.33341 2.16663 4.41675 2.16663 5.83341V7.50008H18.8333V5.83341C18.8333 4.41675 17.75 3.33341 16.3333 3.33341Z" fill="black" fill-opacity="0.2"/>
<path d="M2.16663 15.8334C2.16663 17.2501 3.24996 18.3334 4.66663 18.3334H16.3333C17.75 18.3334 18.8333 17.2501 18.8333 15.8334V9.16675H2.16663V15.8334ZM16.3333 3.33341H14.6666V2.50008C14.6666 2.00008 14.3333 1.66675 13.8333 1.66675C13.3333 1.66675 13 2.00008 13 2.50008V3.33341H7.99996V2.50008C7.99996 2.00008 7.66663 1.66675 7.16663 1.66675C6.66663 1.66675 6.33329 2.00008 6.33329 2.50008V3.33341H4.66663C3.24996 3.33341 2.16663 4.41675 2.16663 5.83341V7.50008H18.8333V5.83341C18.8333 4.41675 17.75 3.33341 16.3333 3.33341Z" fill="black" fill-opacity="0.2"/>
<path d="M2.16663 15.8334C2.16663 17.2501 3.24996 18.3334 4.66663 18.3334H16.3333C17.75 18.3334 18.8333 17.2501 18.8333 15.8334V9.16675H2.16663V15.8334ZM16.3333 3.33341H14.6666V2.50008C14.6666 2.00008 14.3333 1.66675 13.8333 1.66675C13.3333 1.66675 13 2.00008 13 2.50008V3.33341H7.99996V2.50008C7.99996 2.00008 7.66663 1.66675 7.16663 1.66675C6.66663 1.66675 6.33329 2.00008 6.33329 2.50008V3.33341H4.66663C3.24996 3.33341 2.16663 4.41675 2.16663 5.83341V7.50008H18.8333V5.83341C18.8333 4.41675 17.75 3.33341 16.3333 3.33341Z" fill="black" fill-opacity="0.2"/>
</g>
</g>
</svg>
