<svg width="14" height="15" viewBox="0 0 14 15" fill="none" xmlns="http://www.w3.org/2000/svg">
<g id="Icon/people">
<path id="Vector" d="M2.04167 5.16665C2.04178 4.6136 2.18486 4.06997 2.45701 3.58852C2.72916 3.10706 3.12115 2.70414 3.59493 2.41884C4.06871 2.13354 4.6082 1.97555 5.16103 1.96022C5.71387 1.94488 6.26128 2.07271 6.75015 2.33131C7.23902 2.58991 7.65274 2.97048 7.95117 3.43611C8.24959 3.90173 8.42259 4.43659 8.45336 4.98879C8.48414 5.54098 8.37165 6.09175 8.12681 6.58765C7.88197 7.08356 7.5131 7.50775 7.056 7.81907C8.04037 8.18011 8.89418 8.82748 9.50754 9.67786C10.1209 10.5282 10.4657 11.5427 10.4977 12.5907C10.4963 12.7037 10.4513 12.8118 10.3722 12.8924C10.293 12.9731 10.1857 13.02 10.0728 13.0234C9.9598 13.0267 9.84991 12.9864 9.76603 12.9106C9.68216 12.8349 9.63079 12.7297 9.62266 12.617C9.58793 11.4803 9.11198 10.4019 8.29568 9.61014C7.47938 8.81841 6.38689 8.37563 5.24971 8.37563C4.11253 8.37563 3.02003 8.81841 2.20373 9.61014C1.38743 10.4019 0.911486 11.4803 0.876749 12.617C0.870908 12.7312 0.82056 12.8386 0.736491 12.9162C0.652422 12.9938 0.541319 13.0353 0.426983 13.032C0.312647 13.0286 0.204172 12.9806 0.124798 12.8982C0.045423 12.8159 0.00146189 12.7057 0.00233201 12.5913C0.0341536 11.5432 0.378936 10.5286 0.992299 9.6781C1.60566 8.82761 2.45953 8.18015 3.444 7.81907C3.01165 7.52485 2.65784 7.12934 2.41341 6.66702C2.16898 6.2047 2.04135 5.68961 2.04167 5.16665ZM5.25 2.83332C4.63116 2.83332 4.03767 3.07915 3.60008 3.51673C3.1625 3.95432 2.91667 4.54781 2.91667 5.16665C2.91667 5.78549 3.1625 6.37898 3.60008 6.81656C4.03767 7.25415 4.63116 7.49998 5.25 7.49998C5.86884 7.49998 6.46233 7.25415 6.89991 6.81656C7.3375 6.37898 7.58333 5.78549 7.58333 5.16665C7.58333 4.54781 7.3375 3.95432 6.89991 3.51673C6.46233 3.07915 5.86884 2.83332 5.25 2.83332ZM10.0858 5.16665C9.9995 5.16665 9.9155 5.17248 9.83267 5.18415C9.77483 5.1945 9.71551 5.1931 9.65823 5.18003C9.60095 5.16696 9.54689 5.14249 9.49927 5.10807C9.45165 5.07366 9.41146 5.03 9.38108 4.97971C9.3507 4.92942 9.33076 4.87353 9.32245 4.81537C9.31414 4.75721 9.31763 4.69797 9.33272 4.64118C9.3478 4.5844 9.37416 4.53124 9.41024 4.48486C9.44631 4.43849 9.49136 4.39986 9.54269 4.37127C9.59402 4.34269 9.65058 4.32473 9.709 4.31848C10.2892 4.2346 10.8808 4.34601 11.3907 4.63519C11.9006 4.92436 12.2999 5.37488 12.5257 5.91584C12.7515 6.4568 12.791 7.05749 12.6381 7.62338C12.4851 8.18927 12.1483 8.68823 11.6807 9.04173C12.3681 9.34952 12.9517 9.84965 13.3612 10.4818C13.7706 11.1139 13.9885 11.851 13.9883 12.6041C13.9883 12.7202 13.9422 12.8315 13.8602 12.9135C13.7781 12.9956 13.6669 13.0416 13.5508 13.0416C13.4348 13.0416 13.3235 12.9956 13.2415 12.9135C13.1594 12.8315 13.1133 12.7202 13.1133 12.6041C13.1133 11.9532 12.9035 11.3197 12.5152 10.7973C12.1269 10.2749 11.5806 9.89146 10.9573 9.70382L10.6458 9.61048V8.63282L10.885 8.5109C11.2395 8.33132 11.5232 8.0375 11.6902 7.67687C11.8572 7.31625 11.8978 6.90987 11.8054 6.52334C11.713 6.13681 11.4931 5.79269 11.1811 5.54653C10.8691 5.30037 10.4832 5.16654 10.0858 5.16665Z" fill="#747474"/>
</g>
</svg>
