<svg width="28" height="28" viewBox="0 0 28 28" fill="none" xmlns="http://www.w3.org/2000/svg">
<g id="Icon/close">
<path id="Vector" d="M7.2625 5.61284C7.04246 5.40032 6.74776 5.28273 6.44186 5.28538C6.13596 5.28804 5.84335 5.41074 5.62704 5.62705C5.41073 5.84336 5.28803 6.13597 5.28538 6.44187C5.28272 6.74776 5.40031 7.04247 5.61283 7.2625L12.3503 14L5.61166 20.7375C5.50023 20.8451 5.41135 20.9739 5.35021 21.1162C5.28907 21.2585 5.25688 21.4116 5.25554 21.5665C5.25419 21.7214 5.28371 21.8751 5.34237 22.0184C5.40103 22.1618 5.48766 22.2921 5.5972 22.4016C5.70674 22.5112 5.837 22.5978 5.98038 22.6565C6.12376 22.7151 6.27739 22.7446 6.4323 22.7433C6.58721 22.742 6.7403 22.7098 6.88263 22.6486C7.02497 22.5875 7.15371 22.4986 7.26133 22.3872L14 15.6497L20.7375 22.3872C20.9575 22.5997 21.2522 22.7173 21.5581 22.7146C21.864 22.712 22.1566 22.5893 22.373 22.373C22.5893 22.1566 22.712 21.864 22.7146 21.5581C22.7173 21.2522 22.5997 20.9575 22.3872 20.7375L15.6497 14L22.3872 7.2625C22.5997 7.04247 22.7173 6.74776 22.7146 6.44187C22.712 6.13597 22.5893 5.84336 22.373 5.62705C22.1566 5.41074 21.864 5.28804 21.5581 5.28538C21.2522 5.28273 20.9575 5.40032 20.7375 5.61284L14 12.3503L7.2625 5.61284Z" fill="#373F67"/>
</g>
</svg>
